<?xml version="1.0" encoding="utf-8"?>
<!-- Generator: Adobe Illustrator 22.0.1, SVG Export Plug-In . SVG Version: 6.00 Build 0)  -->
<svg version="1.1" id="Layer_1" xmlns="http://www.w3.org/2000/svg" xmlns:xlink="http://www.w3.org/1999/xlink" x="0px" y="0px"
	 viewBox="0 0 150 150" style="enable-background:new 0 0 150 150;" xml:space="preserve">
<style type="text/css">
	.st0{fill:#000;}
</style>
<g>
	<path class="st0" d="M39.9,54.3L39.9,54.3c-0.4,0.4-0.8,0.8-1.2,1.2L39.9,54.3z"/>
	<path class="st0" d="M95.3,54.7c3.7,3.7,6.5,7.9,8.3,12.4L90.9,79.9c-0.5-5.1-2.7-10-6.7-14c-9.4-9.4-24.2-8.8-33.9,0.4L23.2,93.3
		c-9.6,9.6-10.4,24.7-0.8,34.3s24.7,8.8,34.3-0.8l11.2-11.2c6.4,1.6,13.5,2.4,20.7,1.6l-20.7,20.7c-15.9,15.9-41.4,15.9-56.6,0.8
		c-15.1-15.1-15.1-40.6,0.8-56.6c0,0,26.2-26.1,27.1-27.1C54.5,39.8,80.6,39.9,95.3,54.7z"/>
	<path class="st0" d="M54.7,95.3c-3.7-3.7-6.5-7.9-8.3-12.4l12.7-12.7c0.5,5.1,2.7,10,6.7,14c9.4,9.4,24.2,8.8,33.9-0.4l27.1-27.1
		c9.6-9.6,10.4-24.7,0.8-34.3s-24.7-8.8-34.3,0.8L82.2,34.4c-6.4-1.6-13.5-2.4-20.7-1.6l20.7-20.7c15.9-15.9,41.4-15.9,56.6-0.8
		c15.1,15.1,15.1,40.6-0.8,56.6c0,0-26.2,26.1-27.1,27.1C95.5,110.2,69.4,110.1,54.7,95.3z"/>
</g>
</svg>
